<?xml version="1.0" standalone="no"?><!DOCTYPE svg PUBLIC "-//W3C//DTD SVG 1.1//EN" "http://www.w3.org/Graphics/SVG/1.1/DTD/svg11.dtd"><svg t="1703333505369" class="icon" viewBox="0 0 1024 1024" version="1.1" xmlns="http://www.w3.org/2000/svg" p-id="7436" xmlns:xlink="http://www.w3.org/1999/xlink" width="200" height="200"><path d="M365.714 576V448q0-9.143-9.143-9.143h-54.857q-9.143 0-9.143 9.143v128q0 9.143 9.143 9.143h54.857q9.143 0 9.143-9.143z m292.572 0V448q0-9.143-9.143-9.143h-54.857q-9.143 0-9.143 9.143v128q0 9.143 9.143 9.143h54.857q9.143 0 9.143-9.143z m292.571 18.286V1024H585.143V841.143q0-45.714-32-77.714t-77.714-32-77.715 32-32 77.714V1024H0V594.286q0-9.143 9.143-9.143H64q9.143 0 9.143 9.143v64h73.143V301.714q0-9.143 9.143-9.143h54.857q9.143 0 9.143 9.143v64h73.142v-64q0-9.143 9.143-9.143h54.857q9.143 0 9.143 9.143v64h73.143v-64q0-9.143 9.143-9.143h9.143V68q-18.286-10.857-18.286-31.429 0-14.857 10.857-25.714T475.43 0t25.714 10.857T512 36.571Q512 57.143 493.714 68v5.143h155.429q9.143 0 9.143 9.143v128q0 9.143-9.143 9.143H493.714v73.142h9.143q9.143 0 9.143 9.143v64h73.143v-64q0-9.143 9.143-9.143h54.857q9.143 0 9.143 9.143v64h73.143v-64q0-9.143 9.142-9.143h54.858q9.142 0 9.142 9.143v356.572h73.143v-64q0-9.143 9.143-9.143h54.857q9.143 0 9.143 9.143z" fill="#515151" p-id="7437"></path></svg>